<svg width="358" height="350" viewBox="0 0 358 350" fill="none" xmlns="http://www.w3.org/2000/svg">
<path d="M184.041 216.17C222.651 216.17 253.951 184.87 253.951 146.26C253.951 107.65 222.651 76.3501 184.041 76.3501C145.431 76.3501 114.131 107.65 114.131 146.26C114.131 184.87 145.431 216.17 184.041 216.17Z" fill="url(#paint0_linear_3198_13918)"/>
<path d="M189.791 134.04C191.031 129.41 188.281 125.67 183.661 125.67H153.021C148.391 125.67 143.641 129.42 142.401 134.04L141.611 136.99L124.221 194.82L218.821 193.43L234.631 143.54C235.601 139.92 233.451 136.99 229.841 136.99H191.961C190.321 136.99 189.361 135.67 189.791 134.04Z" fill="#6E4CD8"/>
<path d="M208.761 179.85C191.291 173.58 173.181 169.32 154.761 167.13C149.591 141.32 150.201 114.17 163.871 90.3901C188.081 93.2701 211.891 98.8701 234.851 107.11C216.201 127.23 209.521 153.54 208.761 179.85Z" fill="url(#paint1_linear_3198_13918)"/>
<path d="M180.55 114.18C180.26 114.13 180 113.99 179.84 113.77C177.25 110.22 174.69 106.73 172.18 103.32C171.87 102.91 172.13 102.35 172.75 102.08C173.37 101.81 174.12 101.92 174.42 102.34C176.88 105.76 179.39 109.25 181.93 112.81C182.24 113.24 182.02 113.81 181.44 114.07C181.16 114.2 180.84 114.23 180.55 114.18Z" fill="#7A50E2"/>
<path d="M169.54 112.36C169.25 112.32 168.98 112.19 168.82 111.98C168.49 111.56 168.68 110.99 169.25 110.7C173.96 108.32 178.92 106.08 184.14 104.02C184.77 103.77 185.52 103.91 185.8 104.34C186.08 104.77 185.8 105.31 185.18 105.56C180.02 107.62 175.11 109.84 170.44 112.21C170.16 112.36 169.84 112.4 169.54 112.36Z" fill="#7A50E2"/>
<path d="M208.069 120.6C207.789 120.52 207.539 120.36 207.409 120.13C205.169 116.35 202.949 112.64 200.759 109.01C200.499 108.57 200.799 108.04 201.449 107.82C202.089 107.61 202.829 107.79 203.089 108.23C205.219 111.87 207.389 115.58 209.589 119.36C209.859 119.82 209.579 120.36 208.989 120.57C208.679 120.68 208.349 120.68 208.069 120.6Z" fill="#7A50E2"/>
<path d="M197.28 117.76C196.99 117.69 196.74 117.53 196.6 117.31C196.31 116.86 196.56 116.31 197.15 116.07C202.06 114.14 207.21 112.38 212.59 110.82C213.24 110.63 213.97 110.84 214.21 111.29C214.45 111.74 214.12 112.26 213.47 112.45C208.14 114.01 203.04 115.77 198.18 117.7C197.89 117.81 197.57 117.83 197.28 117.76Z" fill="#7A50E2"/>
<path d="M194.241 131.15C193.891 131.06 193.581 130.83 193.461 130.51C192.231 127.4 189.311 125.04 185.551 124.26C181.801 123.48 177.871 124.41 175.281 126.74C174.861 127.11 174.171 127.12 173.721 126.76C173.271 126.4 173.251 125.8 173.671 125.42C176.801 122.62 181.591 121.49 186.121 122.44C190.661 123.39 194.141 126.23 195.571 129.96C195.761 130.46 195.451 130.99 194.881 131.14C194.651 131.2 194.441 131.2 194.241 131.15Z" fill="#7A50E2"/>
<path d="M209.53 141.67H132.62C131.58 141.67 130.59 141.84 129.65 142.16C125.93 143.41 123.23 146.94 123.23 151.06V192.14C123.23 197.3 127.46 201.53 132.62 201.53H209.53C214.69 201.53 218.92 197.3 218.92 192.14V188.36V151.07C218.92 145.89 214.69 141.67 209.53 141.67Z" fill="#7A50E2"/>
<path d="M180.97 181.97C185.87 177.3 186.92 169.67 183.1 163.79C178.79 157.15 169.91 155.26 163.27 159.57C156.63 163.88 154.74 172.76 159.05 179.4C162.87 185.28 170.27 187.43 176.53 184.85C177.34 184.52 178.13 184.1 178.89 183.61C179.64 183.12 180.34 182.57 180.97 181.97ZM160.2 178.65C156.3 172.65 158.01 164.62 164.01 160.72C170.01 156.82 178.04 158.53 181.94 164.53C185.84 170.53 184.13 178.56 178.13 182.46C172.13 186.37 164.1 184.66 160.2 178.65Z" fill="#FFFDFF"/>
<path d="M165.925 164.346L163.4 166.87L175.357 178.827L177.882 176.303L165.925 164.346Z" fill="#FFFDFF"/>
<path d="M175.357 164.346L163.4 176.303L165.925 178.828L177.882 166.871L175.357 164.346Z" fill="#FFFDFF"/>
<path d="M138.421 101.59C130.631 107.05 128.741 117.8 134.201 125.59C139.661 133.38 150.411 135.27 158.201 129.81C165.991 124.35 167.881 113.6 162.421 105.81C156.961 98.0103 146.211 96.1303 138.421 101.59ZM140.761 104.92C146.711 100.75 154.921 102.19 159.091 108.14C163.261 114.09 161.821 122.3 155.871 126.47C149.921 130.64 141.711 129.2 137.541 123.25C133.371 117.3 134.811 109.09 140.761 104.92Z" fill="#7A50E2"/>
<path d="M100.871 148.95C102.251 150.92 104.961 151.39 106.921 150.01L134.941 130.37L129.951 123.25L101.931 142.89C99.9705 144.27 99.4905 146.98 100.871 148.95Z" fill="#7A50E2"/>
<path d="M243.301 140.17C240.721 139.89 239.371 136.94 240.861 134.82C242.551 132.41 245.221 131.2 248.861 131.2C251.661 131.2 253.871 131.94 255.491 133.42C257.111 134.9 257.921 136.73 257.921 138.92C257.921 139.89 257.761 140.77 257.441 141.57C257.121 142.37 256.711 143.02 256.211 143.54C255.711 144.05 254.901 144.72 253.771 145.54C252.911 146.17 252.371 146.62 252.131 146.91C251.891 147.19 251.731 149.49 251.651 150.04L245.631 150.14C245.631 148.68 245.761 145.63 246.021 144.99C246.281 144.34 246.811 143.66 247.621 142.93C248.841 141.83 249.601 141.01 249.901 140.47C250.201 139.93 250.351 139.31 250.351 138.59C250.351 137.84 250.151 137.26 249.751 136.86C249.351 136.46 248.861 136.25 248.261 136.25C247.011 136.25 246.201 136.96 245.841 138.38C245.561 139.53 244.481 140.3 243.301 140.17Z" fill="#7A50E2"/>
<path d="M252.331 154.45C252.331 156.28 250.851 157.76 249.021 157.76H248.691C246.861 157.76 245.381 156.28 245.381 154.45C245.381 152.62 246.861 151.14 248.691 151.14H249.021C250.851 151.15 252.331 152.63 252.331 154.45Z" fill="#7A50E2"/>
<path d="M107.84 245.83H104.6L97.3298 234.79V245.83H94.0898V229.6H97.3298L104.6 240.73V229.6H107.84V245.83Z" fill="black"/>
<path d="M120.13 233.71C121.12 234.23 121.9 234.99 122.46 235.97C123.03 236.96 123.31 238.12 123.31 239.45C123.31 240.78 123.03 241.94 122.46 242.92C121.89 243.9 121.11 244.66 120.13 245.19C119.14 245.72 118.03 245.98 116.78 245.98C115.54 245.98 114.42 245.72 113.43 245.19C112.44 244.66 111.66 243.91 111.1 242.92C110.53 241.94 110.25 240.78 110.25 239.45C110.25 238.12 110.53 236.96 111.1 235.97C111.67 234.98 112.44 234.23 113.43 233.71C114.42 233.19 115.53 232.93 116.78 232.93C118.02 232.93 119.14 233.19 120.13 233.71ZM114.48 236.69C113.85 237.33 113.54 238.25 113.54 239.46C113.54 240.67 113.85 241.59 114.48 242.23C115.11 242.87 115.87 243.18 116.78 243.18C117.68 243.18 118.45 242.86 119.08 242.23C119.71 241.59 120.02 240.67 120.02 239.46C120.02 238.25 119.71 237.33 119.08 236.69C118.45 236.05 117.68 235.74 116.78 235.74C115.88 235.73 115.11 236.05 114.48 236.69Z" fill="black"/>
<path d="M144.119 241.94C143.449 243.17 142.469 244.12 141.189 244.8C139.909 245.48 138.389 245.82 136.629 245.82H130.859V229.59H136.629C138.389 229.59 139.909 229.92 141.189 230.59C142.469 231.26 143.449 232.2 144.119 233.42C144.789 234.64 145.129 236.06 145.129 237.68C145.129 239.29 144.789 240.71 144.119 241.94ZM140.409 241.55C141.369 240.63 141.849 239.34 141.849 237.69C141.849 236.02 141.369 234.72 140.409 233.8C139.449 232.88 138.099 232.42 136.349 232.42H134.099V242.93H136.349C138.099 242.93 139.449 242.47 140.409 241.55Z" fill="black"/>
<path d="M155.429 233.68C156.199 234.19 156.739 234.87 157.059 235.73V233.09H160.279V245.83H157.059V243.16C156.739 244.02 156.189 244.7 155.429 245.22C154.659 245.73 153.739 245.99 152.669 245.99C151.599 245.99 150.629 245.73 149.769 245.21C148.909 244.69 148.239 243.93 147.759 242.95C147.279 241.96 147.039 240.8 147.039 239.47C147.039 238.14 147.279 236.98 147.759 235.99C148.239 235 148.909 234.25 149.769 233.73C150.629 233.21 151.589 232.95 152.669 232.95C153.749 232.93 154.669 233.18 155.429 233.68ZM151.249 236.74C150.639 237.4 150.329 238.3 150.329 239.45C150.329 240.6 150.639 241.5 151.249 242.15C151.859 242.8 152.679 243.13 153.689 243.13C154.669 243.13 155.479 242.8 156.119 242.13C156.759 241.46 157.069 240.57 157.069 239.45C157.069 238.32 156.749 237.41 156.119 236.75C155.479 236.08 154.679 235.75 153.689 235.75C152.669 235.75 151.859 236.08 151.249 236.74Z" fill="black"/>
<path d="M170.15 243.04V245.82H168.45C167.02 245.82 165.93 245.48 165.17 244.78C164.41 244.09 164.03 242.94 164.03 241.33V235.81H162.26V233.07H164.03V229.92H167.27V233.07H170.12V235.81H167.27V241.37C167.27 241.98 167.39 242.41 167.64 242.66C167.89 242.91 168.3 243.03 168.88 243.03H170.15V243.04Z" fill="black"/>
<path d="M180.329 233.68C181.099 234.19 181.639 234.87 181.959 235.73V233.09H185.179V245.83H181.959V243.16C181.639 244.02 181.089 244.7 180.329 245.22C179.559 245.73 178.639 245.99 177.569 245.99C176.499 245.99 175.529 245.73 174.669 245.21C173.809 244.69 173.139 243.93 172.659 242.95C172.179 241.96 171.939 240.8 171.939 239.47C171.939 238.14 172.179 236.98 172.659 235.99C173.139 235 173.809 234.25 174.669 233.73C175.529 233.21 176.489 232.95 177.569 232.95C178.649 232.93 179.569 233.18 180.329 233.68ZM176.149 236.74C175.539 237.4 175.229 238.3 175.229 239.45C175.229 240.6 175.539 241.5 176.149 242.15C176.759 242.8 177.579 243.13 178.589 243.13C179.569 243.13 180.379 242.8 181.019 242.13C181.649 241.46 181.969 240.57 181.969 239.45C181.969 238.32 181.649 237.41 181.019 236.75C180.379 236.08 179.569 235.75 178.589 235.75C177.569 235.75 176.759 236.08 176.149 236.74Z" fill="black"/>
<path d="M203.439 229.59V232.17H196.609V236.52H202.079V239H196.609V245.83H193.369V229.6H203.439V229.59Z" fill="black"/>
<path d="M214.97 233.71C215.96 234.23 216.74 234.99 217.3 235.97C217.87 236.96 218.15 238.12 218.15 239.45C218.15 240.78 217.87 241.94 217.3 242.92C216.73 243.9 215.95 244.66 214.97 245.19C213.98 245.72 212.87 245.98 211.62 245.98C210.38 245.98 209.26 245.72 208.28 245.19C207.29 244.66 206.51 243.91 205.95 242.92C205.38 241.94 205.1 240.78 205.1 239.45C205.1 238.12 205.38 236.96 205.95 235.97C206.52 234.98 207.29 234.23 208.28 233.71C209.27 233.19 210.38 232.93 211.62 232.93C212.87 232.93 213.98 233.19 214.97 233.71ZM209.33 236.69C208.7 237.33 208.39 238.25 208.39 239.46C208.39 240.67 208.7 241.59 209.33 242.23C209.96 242.87 210.72 243.18 211.63 243.18C212.54 243.18 213.3 242.86 213.93 242.23C214.56 241.59 214.87 240.67 214.87 239.46C214.87 238.25 214.56 237.33 213.93 236.69C213.3 236.05 212.53 235.74 211.63 235.74C210.73 235.74 209.96 236.05 209.33 236.69Z" fill="black"/>
<path d="M232.76 233.09V245.83H229.52V243.25C229.18 244.11 228.63 244.78 227.85 245.26C227.08 245.74 226.18 245.98 225.17 245.98C223.7 245.98 222.53 245.5 221.65 244.53C220.78 243.57 220.34 242.22 220.34 240.48V233.08H223.56V240.12C223.56 241.13 223.82 241.92 224.34 242.48C224.86 243.04 225.57 243.32 226.46 243.32C227.4 243.32 228.14 243.02 228.69 242.42C229.24 241.82 229.52 240.96 229.52 239.84V233.08H232.76V233.09Z" fill="black"/>
<path d="M246.921 234.35C247.791 235.32 248.231 236.67 248.231 238.42V245.82H245.011V238.78C245.011 237.77 244.751 236.98 244.231 236.42C243.711 235.86 243.001 235.58 242.091 235.58C241.171 235.58 240.431 235.88 239.881 236.48C239.331 237.08 239.051 237.94 239.051 239.06V245.82H235.811V233.08H239.051V235.63C239.391 234.77 239.941 234.1 240.721 233.62C241.491 233.14 242.391 232.9 243.401 232.9C244.871 232.9 246.051 233.39 246.921 234.35Z" fill="black"/>
<path d="M258.931 233.68C259.691 234.19 260.241 234.87 260.571 235.73V228.81H263.791V245.82H260.571V243.15C260.231 244.01 259.691 244.69 258.931 245.21C258.171 245.73 257.261 245.98 256.181 245.98C255.101 245.98 254.141 245.72 253.281 245.2C252.421 244.68 251.751 243.92 251.271 242.94C250.791 241.95 250.551 240.79 250.551 239.46C250.551 238.13 250.791 236.97 251.271 235.98C251.751 234.99 252.421 234.24 253.281 233.72C254.141 233.2 255.101 232.94 256.181 232.94C257.261 232.94 258.171 233.18 258.931 233.68ZM254.761 236.74C254.151 237.4 253.841 238.3 253.841 239.45C253.841 240.6 254.151 241.5 254.761 242.15C255.371 242.8 256.191 243.13 257.201 243.13C258.181 243.13 258.991 242.8 259.631 242.13C260.271 241.46 260.581 240.57 260.581 239.45C260.581 238.32 260.261 237.41 259.631 236.75C258.991 236.08 258.181 235.75 257.201 235.75C256.191 235.75 255.371 236.08 254.761 236.74Z" fill="black"/>
<path d="M111.999 257.46C112.679 257.86 113.219 258.42 113.609 259.14C113.999 259.86 114.189 260.67 114.189 261.58C114.189 262.49 113.999 263.31 113.609 264.03C113.219 264.75 112.679 265.32 111.999 265.72C111.319 266.12 110.549 266.33 109.689 266.33C108.829 266.33 108.059 266.13 107.379 265.72C106.699 265.32 106.159 264.75 105.769 264.03C105.379 263.31 105.189 262.49 105.189 261.58C105.189 260.67 105.379 259.85 105.769 259.14C106.159 258.42 106.699 257.86 107.379 257.46C108.059 257.06 108.829 256.86 109.689 256.86C110.549 256.86 111.319 257.06 111.999 257.46ZM107.869 258.19C107.329 258.51 106.909 258.96 106.599 259.54C106.289 260.13 106.129 260.81 106.129 261.59C106.129 262.37 106.289 263.05 106.599 263.64C106.909 264.23 107.339 264.68 107.869 264.99C108.409 265.31 109.019 265.46 109.689 265.46C110.359 265.46 110.969 265.3 111.509 264.99C112.049 264.68 112.469 264.22 112.779 263.64C113.089 263.05 113.249 262.37 113.249 261.59C113.249 260.81 113.089 260.13 112.779 259.54C112.469 258.95 112.039 258.5 111.509 258.19C110.979 257.88 110.359 257.72 109.689 257.72C109.019 257.72 108.399 257.87 107.869 258.19Z" fill="#666666"/>
<path d="M120.959 259.4C121.499 259.69 121.919 260.12 122.229 260.68C122.539 261.24 122.689 261.89 122.689 262.64C122.689 263.39 122.539 264.05 122.229 264.6C121.919 265.15 121.499 265.58 120.959 265.88C120.419 266.18 119.809 266.33 119.129 266.33C118.449 266.33 117.829 266.18 117.289 265.88C116.749 265.58 116.319 265.15 116.009 264.6C115.699 264.05 115.539 263.39 115.539 262.65C115.539 261.9 115.699 261.24 116.009 260.69C116.319 260.14 116.749 259.71 117.289 259.41C117.829 259.12 118.449 258.97 119.129 258.97C119.809 258.97 120.419 259.11 120.959 259.4ZM117.809 260.08C117.409 260.29 117.079 260.61 116.839 261.05C116.589 261.48 116.469 262.02 116.469 262.65C116.469 263.28 116.589 263.81 116.839 264.24C117.089 264.67 117.409 264.99 117.809 265.2C118.209 265.41 118.649 265.52 119.119 265.52C119.579 265.52 120.019 265.41 120.409 265.2C120.809 264.99 121.129 264.67 121.379 264.24C121.629 263.81 121.749 263.28 121.749 262.65C121.749 262.02 121.629 261.49 121.379 261.05C121.129 260.62 120.809 260.29 120.409 260.08C120.009 259.87 119.579 259.76 119.119 259.76C118.649 259.76 118.209 259.87 117.809 260.08Z" fill="#666666"/>
<path d="M129.92 259.4C130.42 259.69 130.82 260.12 131.1 260.68C131.38 261.24 131.53 261.89 131.53 262.64C131.53 263.39 131.39 264.04 131.1 264.59C130.81 265.14 130.42 265.57 129.91 265.87C129.4 266.17 128.82 266.32 128.17 266.32C127.43 266.32 126.81 266.13 126.3 265.75C125.79 265.37 125.44 264.87 125.25 264.25V269.61H124.33V259.04H125.25V261.01C125.44 260.39 125.79 259.89 126.3 259.51C126.81 259.13 127.43 258.94 128.17 258.94C128.84 258.96 129.42 259.11 129.92 259.4ZM126.56 260.13C126.15 260.37 125.83 260.7 125.61 261.14C125.38 261.57 125.27 262.08 125.27 262.64C125.27 263.21 125.38 263.71 125.61 264.14C125.84 264.57 126.16 264.91 126.56 265.15C126.97 265.39 127.43 265.51 127.93 265.51C128.74 265.51 129.39 265.25 129.88 264.74C130.37 264.23 130.6 263.53 130.6 262.64C130.6 261.76 130.36 261.06 129.88 260.54C129.4 260.02 128.75 259.77 127.93 259.77C127.42 259.78 126.97 259.89 126.56 260.13Z" fill="#666666"/>
<path d="M137.24 259.58C137.71 259.99 138 260.55 138.11 261.25H137.23C137.18 260.79 136.99 260.4 136.66 260.1C136.33 259.8 135.89 259.65 135.34 259.65C134.87 259.65 134.5 259.77 134.23 260C133.96 260.23 133.83 260.54 133.83 260.93C133.83 261.22 133.92 261.45 134.09 261.63C134.26 261.81 134.47 261.94 134.73 262.03C134.98 262.12 135.33 262.22 135.76 262.31C136.29 262.43 136.71 262.56 137.03 262.69C137.35 262.82 137.62 263.02 137.85 263.29C138.08 263.56 138.19 263.93 138.19 264.39C138.19 264.96 137.98 265.43 137.55 265.79C137.12 266.15 136.56 266.33 135.86 266.33C135.04 266.33 134.36 266.13 133.84 265.72C133.31 265.31 133 264.75 132.91 264.04H133.8C133.85 264.51 134.06 264.9 134.42 265.2C134.78 265.5 135.27 265.65 135.88 265.65C136.34 265.65 136.69 265.53 136.94 265.3C137.19 265.06 137.32 264.76 137.32 264.38C137.32 264.07 137.23 263.83 137.06 263.64C136.88 263.46 136.67 263.32 136.41 263.23C136.15 263.14 135.8 263.04 135.35 262.93C134.83 262.81 134.42 262.68 134.11 262.56C133.8 262.44 133.53 262.25 133.31 261.99C133.09 261.73 132.98 261.38 132.98 260.93C132.98 260.34 133.19 259.87 133.62 259.51C134.05 259.15 134.63 258.97 135.37 258.97C136.14 258.96 136.77 259.17 137.24 259.58Z" fill="#666666"/>
<path d="M141.329 265.05V266.23H140.109V265.05H141.329ZM141.209 256.8L141.069 263.65H140.329L140.189 256.8H141.209Z" fill="#666666"/>
<path d="M153.85 266.23H152.92L147.85 258.49V266.23H146.92V256.98H147.85L152.92 264.74V256.98H153.85V266.23Z" fill="#666666"/>
<path d="M160.93 259.4C161.47 259.69 161.89 260.12 162.2 260.68C162.51 261.24 162.66 261.89 162.66 262.64C162.66 263.39 162.51 264.05 162.2 264.6C161.89 265.15 161.47 265.58 160.93 265.88C160.39 266.18 159.78 266.33 159.1 266.33C158.42 266.33 157.8 266.18 157.26 265.88C156.72 265.58 156.29 265.15 155.98 264.6C155.67 264.05 155.51 263.39 155.51 262.65C155.51 261.9 155.67 261.24 155.98 260.69C156.29 260.14 156.72 259.71 157.26 259.41C157.8 259.12 158.42 258.97 159.1 258.97C159.78 258.97 160.39 259.11 160.93 259.4ZM157.79 260.08C157.39 260.29 157.06 260.61 156.82 261.05C156.57 261.48 156.45 262.02 156.45 262.65C156.45 263.28 156.57 263.81 156.82 264.24C157.07 264.67 157.39 264.99 157.79 265.2C158.19 265.41 158.63 265.52 159.1 265.52C159.56 265.52 160 265.41 160.39 265.2C160.79 264.99 161.11 264.67 161.36 264.24C161.61 263.81 161.73 263.28 161.73 262.65C161.73 262.02 161.61 261.49 161.36 261.05C161.11 260.62 160.79 260.29 160.39 260.08C159.99 259.87 159.56 259.76 159.1 259.76C158.63 259.76 158.19 259.87 157.79 260.08Z" fill="#666666"/>
<path d="M167.58 265.42V266.24H166.73C166.04 266.24 165.52 266.08 165.18 265.75C164.84 265.42 164.67 264.87 164.67 264.09V259.87H163.58V259.07H164.67V257.26H165.6V259.07H167.57V259.87H165.6V264.1C165.6 264.61 165.69 264.96 165.88 265.14C166.07 265.32 166.39 265.42 166.85 265.42H167.58Z" fill="#666666"/>
<path d="M174.71 259.72C175.23 260.25 175.49 261.03 175.49 262.05V266.23H174.58V262.12C174.58 261.34 174.38 260.74 173.99 260.33C173.6 259.91 173.06 259.71 172.37 259.71C171.65 259.71 171.08 259.94 170.65 260.4C170.22 260.86 170.01 261.54 170.01 262.43V266.24H169.08V256.51H170.01V260.82C170.19 260.21 170.53 259.74 171.01 259.41C171.49 259.09 172.04 258.92 172.67 258.92C173.51 258.92 174.19 259.19 174.71 259.72Z" fill="#666666"/>
<path d="M177.419 256.46C177.549 256.35 177.709 256.29 177.909 256.29C178.109 256.29 178.269 256.35 178.399 256.46C178.519 256.57 178.579 256.73 178.579 256.92C178.579 257.1 178.519 257.25 178.399 257.37C178.279 257.48 178.119 257.54 177.909 257.54C177.699 257.54 177.539 257.48 177.419 257.37C177.289 257.26 177.229 257.11 177.229 256.92C177.229 256.73 177.289 256.58 177.419 256.46ZM178.369 259.05V266.23H177.439V259.05H178.369Z" fill="#666666"/>
<path d="M185.989 259.72C186.509 260.25 186.769 261.03 186.769 262.05V266.23H185.859V262.12C185.859 261.34 185.659 260.74 185.269 260.33C184.879 259.91 184.339 259.71 183.649 259.71C182.929 259.71 182.359 259.94 181.939 260.4C181.509 260.86 181.299 261.54 181.299 262.43V266.24H180.369V259.06H181.299V260.82C181.479 260.21 181.819 259.74 182.299 259.41C182.779 259.08 183.339 258.92 183.959 258.92C184.789 258.92 185.469 259.19 185.989 259.72Z" fill="#666666"/>
<path d="M193.599 259.53C194.109 259.91 194.469 260.41 194.659 261.03V259.06H195.569V266.41C195.569 267.08 195.429 267.66 195.149 268.16C194.869 268.66 194.479 269.05 193.979 269.33C193.479 269.61 192.909 269.74 192.269 269.74C191.329 269.74 190.559 269.51 189.959 269.06C189.359 268.61 188.969 268 188.779 267.23H189.699C189.859 267.76 190.149 268.17 190.569 268.48C190.989 268.79 191.539 268.94 192.209 268.94C192.669 268.94 193.079 268.84 193.449 268.64C193.819 268.44 194.119 268.15 194.329 267.77C194.539 267.38 194.649 266.93 194.649 266.4V264.26C194.459 264.88 194.109 265.38 193.589 265.76C193.079 266.14 192.459 266.33 191.729 266.33C191.079 266.33 190.499 266.18 189.989 265.88C189.479 265.58 189.079 265.15 188.789 264.6C188.499 264.04 188.359 263.39 188.359 262.65C188.359 261.9 188.499 261.24 188.789 260.69C189.069 260.13 189.469 259.71 189.979 259.41C190.489 259.12 191.069 258.97 191.729 258.97C192.469 258.96 193.089 259.15 193.599 259.53ZM190.039 260.54C189.549 261.05 189.309 261.75 189.309 262.64C189.309 263.53 189.549 264.22 190.039 264.74C190.529 265.26 191.169 265.51 191.979 265.51C192.489 265.51 192.949 265.39 193.349 265.15C193.749 264.91 194.079 264.58 194.309 264.14C194.539 263.71 194.659 263.21 194.659 262.64C194.659 262.07 194.539 261.57 194.309 261.14C194.079 260.71 193.759 260.37 193.349 260.13C192.939 259.89 192.479 259.78 191.979 259.78C191.169 259.78 190.519 260.03 190.039 260.54Z" fill="#666666"/>
<path d="M206.599 259.72C207.119 260.25 207.379 261.03 207.379 262.05V266.23H206.469V262.12C206.469 261.34 206.269 260.74 205.879 260.33C205.489 259.91 204.949 259.71 204.259 259.71C203.539 259.71 202.969 259.94 202.549 260.4C202.119 260.86 201.909 261.54 201.909 262.43V266.24H200.979V256.51H201.909V260.82C202.089 260.21 202.429 259.74 202.909 259.41C203.389 259.09 203.939 258.92 204.569 258.92C205.399 258.92 206.079 259.19 206.599 259.72Z" fill="#666666"/>
<path d="M214.09 265.07C214.53 264.75 214.79 264.31 214.88 263.76H215.85C215.72 264.52 215.35 265.14 214.76 265.61C214.16 266.08 213.41 266.32 212.5 266.32C211.82 266.32 211.21 266.17 210.68 265.88C210.15 265.59 209.74 265.16 209.44 264.61C209.14 264.06 208.99 263.4 208.99 262.64C208.99 261.88 209.14 261.23 209.44 260.68C209.74 260.13 210.15 259.7 210.68 259.4C211.21 259.1 211.82 258.96 212.5 258.96C213.2 258.96 213.81 259.11 214.32 259.4C214.83 259.69 215.22 260.09 215.49 260.58C215.76 261.07 215.89 261.61 215.89 262.18C215.89 262.43 215.87 262.65 215.84 262.85H209.9C209.91 263.45 210.03 263.96 210.28 264.37C210.52 264.78 210.83 265.08 211.22 265.27C211.61 265.46 212.02 265.56 212.47 265.56C213.11 265.56 213.65 265.4 214.09 265.07ZM211.22 260C210.83 260.19 210.52 260.49 210.28 260.89C210.04 261.29 209.91 261.79 209.89 262.38H214.96C215 261.79 214.9 261.3 214.67 260.89C214.44 260.49 214.13 260.19 213.75 260C213.36 259.81 212.94 259.71 212.49 259.71C212.03 259.71 211.61 259.81 211.22 260Z" fill="#666666"/>
<path d="M219.489 259.34C219.949 259.06 220.519 258.92 221.189 258.92V259.92H220.889C220.199 259.92 219.619 260.11 219.169 260.48C218.709 260.85 218.489 261.46 218.489 262.3V266.23H217.559V259.05H218.489V260.54C218.689 260.02 219.029 259.62 219.489 259.34Z" fill="#666666"/>
<path d="M227.17 265.07C227.61 264.75 227.87 264.31 227.96 263.76H228.93C228.8 264.52 228.43 265.14 227.84 265.61C227.24 266.08 226.49 266.32 225.58 266.32C224.9 266.32 224.29 266.17 223.76 265.88C223.23 265.59 222.82 265.16 222.52 264.61C222.22 264.06 222.07 263.4 222.07 262.64C222.07 261.88 222.22 261.23 222.52 260.68C222.82 260.13 223.23 259.7 223.76 259.4C224.29 259.1 224.9 258.96 225.58 258.96C226.28 258.96 226.89 259.11 227.4 259.4C227.91 259.69 228.3 260.09 228.57 260.58C228.84 261.07 228.97 261.61 228.97 262.18C228.97 262.43 228.95 262.65 228.92 262.85H222.98C222.99 263.45 223.11 263.96 223.36 264.37C223.6 264.78 223.91 265.08 224.3 265.27C224.69 265.46 225.1 265.56 225.55 265.56C226.18 265.56 226.73 265.4 227.17 265.07ZM224.3 260C223.91 260.19 223.6 260.49 223.36 260.89C223.12 261.29 222.99 261.79 222.97 262.38H228.04C228.08 261.79 227.98 261.3 227.75 260.89C227.52 260.49 227.21 260.19 226.83 260C226.44 259.81 226.02 259.71 225.57 259.71C225.11 259.71 224.69 259.81 224.3 260Z" fill="#666666"/>
<path d="M234.239 259.05L236.739 265.03L239.039 259.05H240.069L235.849 269.62H234.799L236.249 266.15L233.229 259.05H234.239Z" fill="#666666"/>
<path d="M245.989 265.07C246.429 264.75 246.689 264.31 246.779 263.76H247.749C247.619 264.52 247.249 265.14 246.659 265.61C246.059 266.08 245.309 266.32 244.399 266.32C243.719 266.32 243.109 266.17 242.579 265.88C242.049 265.59 241.639 265.16 241.339 264.61C241.039 264.06 240.889 263.4 240.889 262.64C240.889 261.88 241.039 261.23 241.339 260.68C241.639 260.13 242.049 259.7 242.579 259.4C243.109 259.1 243.719 258.96 244.399 258.96C245.099 258.96 245.709 259.11 246.219 259.4C246.729 259.69 247.119 260.09 247.389 260.58C247.659 261.07 247.789 261.61 247.789 262.18C247.789 262.43 247.769 262.65 247.739 262.85H241.799C241.809 263.45 241.929 263.96 242.179 264.37C242.419 264.78 242.729 265.08 243.119 265.27C243.509 265.46 243.919 265.56 244.369 265.56C245.009 265.56 245.549 265.4 245.989 265.07ZM243.119 260C242.729 260.19 242.419 260.49 242.179 260.89C241.939 261.29 241.809 261.79 241.789 262.38H246.859C246.899 261.79 246.799 261.3 246.569 260.89C246.339 260.49 246.029 260.19 245.649 260C245.259 259.81 244.839 259.71 244.389 259.71C243.939 259.71 243.509 259.81 243.119 260Z" fill="#666666"/>
<path d="M252.709 265.42V266.24H251.859C251.169 266.24 250.649 266.08 250.309 265.75C249.969 265.42 249.799 264.87 249.799 264.09V259.87H248.709V259.07H249.799V257.26H250.729V259.07H252.699V259.87H250.729V264.1C250.729 264.61 250.819 264.96 251.009 265.14C251.189 265.33 251.519 265.42 251.979 265.42H252.709Z" fill="#666666"/>
<defs>
<linearGradient id="paint0_linear_3198_13918" x1="123.94" y1="209.814" x2="249.116" y2="77.4526" gradientUnits="userSpaceOnUse">
<stop stop-color="#EEE9FF"/>
<stop offset="1" stop-color="white" stop-opacity="0"/>
</linearGradient>
<linearGradient id="paint1_linear_3198_13918" x1="197.696" y1="92.6657" x2="180.12" y2="194.56" gradientUnits="userSpaceOnUse">
<stop stop-color="white"/>
<stop offset="0.1602" stop-color="#EAEAEB"/>
<stop offset="0.1913" stop-color="#E4E4E5"/>
<stop offset="0.4442" stop-color="#BABABB"/>
<stop offset="0.6721" stop-color="#9B9B9C"/>
<stop offset="0.8651" stop-color="#898989"/>
<stop offset="1" stop-color="#828282"/>
</linearGradient>
</defs>
</svg>
