<svg width="358" height="350" viewBox="0 0 358 350" fill="none" xmlns="http://www.w3.org/2000/svg">
<path d="M179 216.77C217.61 216.77 248.91 185.47 248.91 146.86C248.91 108.25 217.61 76.9502 179 76.9502C140.39 76.9502 109.09 108.25 109.09 146.86C109.09 185.47 140.39 216.77 179 216.77Z" fill="url(#paint0_linear_3198_13871)"/>
<path d="M162.92 120.24C166.95 119.33 170.81 118.85 174.73 118.67C182.89 118.29 190.81 119.46 198.52 122.1C207.11 125.03 214.73 129.6 221.4 135.76C222.02 136.33 222.66 136.89 223.25 137.49C225.06 139.35 225.09 142.01 223.34 143.75C221.65 145.43 218.93 145.43 217.14 143.66C213.18 139.73 208.75 136.43 203.83 133.82C198.05 130.75 191.94 128.75 185.45 127.84C182.16 127.38 178.87 127.17 175.56 127.28C174.15 127.33 172.73 127.47 171.33 127.62C170.65 127.69 170.13 127.59 169.62 127.06C167.65 125.02 165.62 123.03 163.61 121.02C163.41 120.81 163.22 120.58 162.92 120.24Z" fill="#9777FC"/>
<path d="M178.549 135.96C181.769 135.96 184.659 136.36 187.519 136.98C196.529 138.95 204.309 143.19 210.899 149.64C212.199 150.91 212.689 152.4 212.149 154.16C211.609 155.93 210.349 156.91 208.569 157.18C207.309 157.37 206.119 157.03 205.209 156.13C200.619 151.62 195.319 148.31 189.189 146.34C188.949 146.26 188.759 146.15 188.589 145.98C185.309 142.72 182.039 139.45 178.549 135.96Z" fill="#9777FC"/>
<path d="M189.28 179.24C189.25 183.94 185.26 187.91 180.58 187.9C175.89 187.89 171.91 183.91 171.9 179.22C171.89 174.51 175.96 170.46 180.65 170.52C185.37 170.57 189.32 174.57 189.28 179.24Z" fill="#9777FC"/>
<path d="M174.96 153.83C177.76 156.43 180.45 159.14 183.06 161.92C180.26 161.92 177.47 161.88 174.73 162.69C171.22 163.72 168.16 165.48 165.53 168C163.42 170.02 160.62 170 158.85 167.91C157.58 166.42 157.46 164.01 158.79 162.58C163.15 157.93 168.5 155.03 174.76 153.82C174.82 153.81 174.89 153.83 174.96 153.83Z" fill="#9777FC"/>
<path d="M161.179 140.03C163.469 142.18 165.689 144.41 167.849 146.69C162.219 148.68 157.309 151.8 153.039 155.95C151.239 157.7 148.579 157.64 146.869 155.89C145.229 154.2 145.269 151.53 146.999 149.78C151.119 145.65 155.879 142.44 161.179 140.03Z" fill="#9777FC"/>
<path d="M148.37 127.25C150.55 129.23 152.63 131.33 154.63 133.5C153.02 134.48 151.38 135.41 149.8 136.44C146.64 138.49 143.72 140.83 141.08 143.51C139.71 144.9 138.07 145.36 136.26 144.72C133.32 143.69 132.39 140.01 134.57 137.76C138.59 133.62 143.15 130.14 148.17 127.28C148.22 127.24 148.3 127.25 148.37 127.25Z" fill="#9777FC"/>
<path d="M172.799 152.45C170.669 150.04 168.389 147.78 166.099 145.53C164.059 143.32 161.979 141.16 159.819 139.08C157.819 136.9 155.789 134.76 153.639 132.75C151.759 130.65 149.799 128.62 147.739 126.7C147.519 126.43 147.309 126.14 147.059 125.89C144.429 123.18 141.789 120.47 139.149 117.76C136.959 115.51 136.719 112.97 138.519 111.14C140.309 109.32 142.759 109.59 144.959 111.86C156.159 123.37 167.359 134.88 178.559 146.38C191.499 159.67 204.429 172.97 217.379 186.25C218.609 187.51 219.219 188.93 218.779 190.68C218.039 193.61 214.589 194.76 212.279 192.86C211.929 192.57 211.629 192.24 211.309 191.91C201.349 181.68 191.389 171.44 181.419 161.21C181.109 160.89 180.759 160.6 180.429 160.29C177.969 157.59 175.439 154.97 172.799 152.45Z" fill="#7A50E2"/>
<path d="M128.84 247.63H125.6L118.33 236.59V247.63H115.09V231.4H118.33L125.6 242.53V231.4H128.84V247.63Z" fill="black"/>
<path d="M141.13 235.51C142.12 236.03 142.9 236.79 143.46 237.77C144.03 238.76 144.31 239.92 144.31 241.25C144.31 242.58 144.03 243.74 143.46 244.72C142.89 245.7 142.12 246.46 141.13 246.99C140.14 247.52 139.03 247.78 137.79 247.78C136.55 247.78 135.43 247.52 134.44 246.99C133.45 246.46 132.67 245.71 132.11 244.72C131.54 243.74 131.26 242.58 131.26 241.25C131.26 239.92 131.54 238.76 132.11 237.77C132.68 236.78 133.45 236.03 134.44 235.51C135.43 234.99 136.54 234.73 137.79 234.73C139.03 234.73 140.14 234.99 141.13 235.51ZM135.49 238.49C134.86 239.13 134.55 240.05 134.55 241.26C134.55 242.47 134.86 243.39 135.49 244.03C136.12 244.67 136.88 244.98 137.79 244.98C138.69 244.98 139.46 244.66 140.09 244.03C140.72 243.39 141.03 242.47 141.03 241.26C141.03 240.05 140.72 239.13 140.09 238.49C139.46 237.85 138.7 237.54 137.79 237.54C136.88 237.53 136.12 237.85 135.49 238.49Z" fill="black"/>
<path d="M155.099 231.39V247.62H151.859V231.39H155.099Z" fill="black"/>
<path d="M169.26 236.15C170.13 237.12 170.57 238.47 170.57 240.22V247.62H167.35V240.58C167.35 239.57 167.09 238.78 166.57 238.22C166.05 237.66 165.34 237.38 164.43 237.38C163.51 237.38 162.77 237.68 162.22 238.28C161.67 238.88 161.39 239.74 161.39 240.86V247.62H158.15V234.88H161.39V237.43C161.73 236.57 162.28 235.9 163.06 235.42C163.83 234.94 164.73 234.7 165.74 234.7C167.22 234.71 168.39 235.19 169.26 236.15Z" fill="black"/>
<path d="M180.349 244.84V247.62H178.649C177.219 247.62 176.129 247.28 175.369 246.58C174.609 245.89 174.229 244.74 174.229 243.13V237.61H172.459V234.87H174.229V231.72H177.469V234.87H180.319V237.61H177.469V243.17C177.469 243.78 177.589 244.21 177.839 244.46C178.089 244.71 178.499 244.83 179.079 244.83H180.349V244.84Z" fill="black"/>
<path d="M194.65 241.88H185.32C185.37 243.01 185.67 243.85 186.24 244.39C186.81 244.93 187.51 245.19 188.36 245.19C189.11 245.19 189.74 245.01 190.23 244.64C190.72 244.27 191.05 243.77 191.18 243.15H194.61C194.44 244.04 194.08 244.84 193.53 245.54C192.98 246.25 192.27 246.8 191.4 247.2C190.53 247.6 189.57 247.8 188.51 247.8C187.27 247.8 186.17 247.54 185.2 247.01C184.23 246.48 183.48 245.73 182.95 244.74C182.41 243.76 182.15 242.6 182.15 241.27C182.15 239.94 182.42 238.78 182.95 237.79C183.49 236.8 184.24 236.05 185.2 235.53C186.17 235.01 187.27 234.75 188.51 234.75C189.77 234.75 190.87 235.01 191.81 235.53C192.75 236.05 193.48 236.77 193.99 237.68C194.5 238.59 194.76 239.63 194.76 240.8C194.76 241.1 194.72 241.46 194.65 241.88ZM190.68 238.08C190.09 237.54 189.37 237.28 188.51 237.28C187.64 237.28 186.9 237.55 186.3 238.08C185.7 238.62 185.37 239.41 185.31 240.45H191.49C191.54 239.41 191.27 238.62 190.68 238.08Z" fill="black"/>
<path d="M202.3 235.41C203.08 234.94 203.96 234.71 204.92 234.71V238.18H203.98C201.6 238.18 200.42 239.28 200.42 241.49V247.63H197.18V234.89H200.42V237.33C200.89 236.51 201.52 235.87 202.3 235.41Z" fill="black"/>
<path d="M217.94 236.15C218.81 237.12 219.25 238.47 219.25 240.22V247.62H216.03V240.58C216.03 239.57 215.77 238.78 215.25 238.22C214.73 237.66 214.02 237.38 213.11 237.38C212.19 237.38 211.45 237.68 210.9 238.28C210.35 238.88 210.07 239.74 210.07 240.86V247.62H206.83V234.88H210.07V237.43C210.41 236.57 210.96 235.9 211.74 235.42C212.51 234.94 213.41 234.7 214.42 234.7C215.89 234.71 217.06 235.19 217.94 236.15Z" fill="black"/>
<path d="M234.08 241.88H224.75C224.8 243.01 225.1 243.85 225.67 244.39C226.24 244.93 226.94 245.19 227.79 245.19C228.54 245.19 229.17 245.01 229.66 244.64C230.16 244.27 230.48 243.77 230.61 243.15H234.04C233.87 244.04 233.51 244.84 232.96 245.54C232.41 246.25 231.7 246.8 230.83 247.2C229.96 247.6 229 247.8 227.94 247.8C226.7 247.8 225.6 247.54 224.63 247.01C223.66 246.48 222.91 245.73 222.38 244.74C221.84 243.76 221.58 242.6 221.58 241.27C221.58 239.94 221.85 238.78 222.38 237.79C222.92 236.8 223.67 236.05 224.63 235.53C225.6 235.01 226.7 234.75 227.94 234.75C229.2 234.75 230.3 235.01 231.24 235.53C232.18 236.05 232.91 236.77 233.42 237.68C233.93 238.59 234.19 239.63 234.19 240.8C234.19 241.1 234.16 241.46 234.08 241.88ZM230.11 238.08C229.52 237.54 228.8 237.28 227.94 237.28C227.07 237.28 226.33 237.55 225.73 238.08C225.13 238.62 224.8 239.41 224.74 240.45H230.92C230.97 239.41 230.7 238.62 230.11 238.08Z" fill="black"/>
<path d="M243.41 244.84V247.62H241.71C240.28 247.62 239.19 247.28 238.43 246.58C237.67 245.89 237.29 244.74 237.29 243.13V237.61H235.52V234.87H237.29V231.72H240.53V234.87H243.38V237.61H240.53V243.17C240.53 243.78 240.65 244.21 240.9 244.46C241.15 244.71 241.56 244.83 242.14 244.83H243.41V244.84Z" fill="black"/>
<path d="M124.531 256.86C125.211 257.26 125.751 257.82 126.141 258.54C126.531 259.26 126.721 260.07 126.721 260.98C126.721 261.89 126.521 262.71 126.141 263.43C125.751 264.15 125.211 264.72 124.531 265.12C123.851 265.52 123.071 265.73 122.221 265.73C121.361 265.73 120.591 265.53 119.911 265.12C119.231 264.72 118.691 264.15 118.301 263.43C117.911 262.71 117.721 261.89 117.721 260.98C117.721 260.07 117.921 259.25 118.301 258.54C118.691 257.82 119.231 257.26 119.911 256.86C120.591 256.46 121.371 256.26 122.221 256.26C123.081 256.26 123.851 256.46 124.531 256.86ZM120.401 257.58C119.861 257.9 119.441 258.35 119.121 258.93C118.811 259.52 118.651 260.2 118.651 260.98C118.651 261.76 118.811 262.44 119.121 263.03C119.431 263.62 119.861 264.07 120.401 264.38C120.941 264.69 121.551 264.85 122.221 264.85C122.891 264.85 123.501 264.69 124.041 264.38C124.581 264.07 125.001 263.61 125.321 263.03C125.631 262.44 125.791 261.76 125.791 260.98C125.791 260.2 125.631 259.52 125.321 258.93C125.011 258.34 124.581 257.89 124.041 257.58C123.501 257.27 122.891 257.11 122.221 257.11C121.541 257.11 120.941 257.27 120.401 257.58Z" fill="#666666"/>
<path d="M133.49 258.8C134.03 259.09 134.45 259.52 134.76 260.08C135.07 260.64 135.22 261.29 135.22 262.04C135.22 262.79 135.07 263.45 134.76 264C134.45 264.55 134.03 264.98 133.49 265.28C132.95 265.58 132.34 265.73 131.66 265.73C130.98 265.73 130.36 265.58 129.82 265.28C129.28 264.98 128.85 264.55 128.54 264C128.23 263.44 128.07 262.79 128.07 262.05C128.07 261.3 128.23 260.64 128.54 260.09C128.85 259.53 129.28 259.11 129.82 258.81C130.36 258.52 130.98 258.37 131.66 258.37C132.34 258.37 132.95 258.51 133.49 258.8ZM130.34 259.48C129.94 259.69 129.61 260.01 129.37 260.45C129.12 260.88 129 261.42 129 262.05C129 262.68 129.12 263.21 129.37 263.64C129.62 264.07 129.94 264.39 130.34 264.6C130.74 264.81 131.18 264.92 131.65 264.92C132.11 264.92 132.55 264.81 132.94 264.6C133.34 264.39 133.66 264.07 133.91 263.64C134.16 263.21 134.28 262.68 134.28 262.05C134.28 261.42 134.16 260.89 133.91 260.45C133.66 260.02 133.34 259.69 132.94 259.48C132.54 259.27 132.11 259.16 131.65 259.16C131.18 259.16 130.74 259.27 130.34 259.48Z" fill="#666666"/>
<path d="M142.461 258.8C142.961 259.09 143.361 259.52 143.641 260.08C143.921 260.64 144.071 261.29 144.071 262.04C144.071 262.79 143.931 263.44 143.641 263.99C143.351 264.55 142.961 264.97 142.451 265.27C141.941 265.57 141.361 265.72 140.711 265.72C139.971 265.72 139.351 265.53 138.841 265.15C138.331 264.77 137.981 264.27 137.791 263.65V269.01H136.871V258.44H137.791V260.41C137.981 259.79 138.331 259.29 138.841 258.91C139.351 258.53 139.971 258.34 140.711 258.34C141.371 258.36 141.951 258.51 142.461 258.8ZM139.091 259.53C138.681 259.77 138.371 260.1 138.141 260.54C137.911 260.97 137.801 261.48 137.801 262.04C137.801 262.61 137.911 263.11 138.141 263.54C138.371 263.97 138.691 264.31 139.091 264.55C139.501 264.79 139.961 264.91 140.461 264.91C141.271 264.91 141.921 264.65 142.411 264.14C142.901 263.63 143.131 262.93 143.131 262.04C143.131 261.16 142.891 260.46 142.411 259.94C141.931 259.42 141.281 259.17 140.461 259.17C139.961 259.18 139.501 259.29 139.091 259.53Z" fill="#666666"/>
<path d="M149.772 258.98C150.242 259.39 150.532 259.95 150.642 260.65H149.762C149.712 260.19 149.522 259.8 149.192 259.5C148.862 259.2 148.422 259.05 147.872 259.05C147.402 259.05 147.032 259.17 146.762 259.4C146.492 259.63 146.362 259.94 146.362 260.33C146.362 260.62 146.452 260.85 146.622 261.03C146.792 261.21 147.002 261.34 147.262 261.43C147.512 261.52 147.862 261.62 148.282 261.71C148.812 261.83 149.232 261.96 149.552 262.09C149.872 262.22 150.142 262.42 150.372 262.69C150.602 262.96 150.712 263.33 150.712 263.79C150.712 264.36 150.502 264.83 150.072 265.19C149.652 265.55 149.082 265.73 148.382 265.73C147.562 265.73 146.882 265.53 146.362 265.12C145.832 264.71 145.522 264.15 145.432 263.44H146.322C146.372 263.91 146.582 264.3 146.942 264.6C147.302 264.9 147.792 265.05 148.402 265.05C148.862 265.05 149.212 264.93 149.462 264.7C149.712 264.47 149.842 264.16 149.842 263.78C149.842 263.47 149.752 263.23 149.582 263.04C149.402 262.86 149.192 262.72 148.932 262.63C148.672 262.54 148.322 262.44 147.872 262.33C147.352 262.21 146.942 262.08 146.632 261.96C146.322 261.84 146.052 261.65 145.842 261.39C145.622 261.13 145.512 260.78 145.512 260.33C145.512 259.74 145.722 259.27 146.152 258.91C146.582 258.55 147.162 258.37 147.902 258.37C148.672 258.36 149.302 258.57 149.772 258.98Z" fill="#666666"/>
<path d="M153.861 264.45V265.63H152.641V264.45H153.861ZM153.741 256.2L153.591 263.05H152.851L152.711 256.2H153.741Z" fill="#666666"/>
<path d="M165.66 256.36L162.68 262.01V265.63H161.75V262.01L158.75 256.36H159.81L162.2 261.03L164.59 256.36H165.66Z" fill="#666666"/>
<path d="M172.031 258.8C172.571 259.09 172.991 259.52 173.301 260.08C173.611 260.64 173.761 261.29 173.761 262.04C173.761 262.79 173.611 263.45 173.301 264C172.991 264.55 172.571 264.98 172.031 265.28C171.491 265.58 170.881 265.73 170.201 265.73C169.521 265.73 168.901 265.58 168.361 265.28C167.821 264.98 167.391 264.55 167.081 264C166.771 263.44 166.611 262.79 166.611 262.05C166.611 261.3 166.771 260.64 167.081 260.09C167.391 259.53 167.821 259.11 168.361 258.81C168.901 258.52 169.521 258.37 170.201 258.37C170.881 258.37 171.491 258.51 172.031 258.8ZM168.881 259.48C168.481 259.69 168.151 260.01 167.911 260.45C167.661 260.88 167.541 261.42 167.541 262.05C167.541 262.68 167.661 263.21 167.911 263.64C168.161 264.07 168.481 264.39 168.881 264.6C169.281 264.81 169.721 264.92 170.191 264.92C170.651 264.92 171.091 264.81 171.481 264.6C171.881 264.39 172.201 264.07 172.451 263.64C172.701 263.21 172.821 262.68 172.821 262.05C172.821 261.42 172.701 260.89 172.451 260.45C172.201 260.02 171.881 259.69 171.481 259.48C171.081 259.27 170.651 259.16 170.191 259.16C169.731 259.16 169.291 259.27 168.881 259.48Z" fill="#666666"/>
<path d="M181.611 258.45V265.63H180.691V263.86C180.511 264.48 180.171 264.96 179.691 265.28C179.211 265.6 178.661 265.77 178.031 265.77C177.191 265.77 176.511 265.5 175.991 264.97C175.471 264.44 175.211 263.66 175.211 262.64V258.46H176.131V262.56C176.131 263.35 176.331 263.95 176.721 264.37C177.111 264.79 177.651 264.99 178.341 264.99C179.061 264.99 179.631 264.76 180.061 264.3C180.491 263.84 180.701 263.16 180.701 262.27V258.46H181.611V258.45Z" fill="#666666"/>
<path d="M184.29 256.57C184.29 257.47 183.89 257.92 183.09 257.92V257.46C183.31 257.46 183.47 257.4 183.56 257.29C183.66 257.18 183.7 257 183.7 256.78V256.45H183.1V255.45H184.16C184.25 255.88 184.29 256.26 184.29 256.57Z" fill="#666666"/>
<path d="M187.69 258.74C188.15 258.46 188.72 258.32 189.39 258.32V259.32H189.09C188.4 259.32 187.82 259.51 187.37 259.88C186.91 260.25 186.69 260.86 186.69 261.7V265.63H185.76V258.45H186.69V259.94C186.89 259.42 187.23 259.02 187.69 258.74Z" fill="#666666"/>
<path d="M195.371 264.47C195.811 264.15 196.071 263.71 196.161 263.16H197.131C197.001 263.92 196.631 264.54 196.041 265.01C195.441 265.48 194.691 265.72 193.781 265.72C193.101 265.72 192.491 265.57 191.961 265.28C191.431 264.99 191.021 264.56 190.721 264.01C190.421 263.46 190.271 262.8 190.271 262.04C190.271 261.28 190.421 260.63 190.721 260.08C191.021 259.53 191.431 259.1 191.961 258.8C192.491 258.5 193.101 258.36 193.781 258.36C194.481 258.36 195.091 258.51 195.601 258.8C196.111 259.09 196.501 259.49 196.771 259.98C197.041 260.47 197.171 261.01 197.171 261.58C197.171 261.83 197.151 262.05 197.121 262.25H191.181C191.191 262.85 191.311 263.36 191.561 263.77C191.801 264.18 192.111 264.48 192.501 264.67C192.891 264.86 193.301 264.96 193.751 264.96C194.391 264.96 194.931 264.8 195.371 264.47ZM192.511 259.4C192.121 259.59 191.811 259.89 191.571 260.29C191.331 260.69 191.201 261.19 191.181 261.78H196.251C196.291 261.19 196.191 260.7 195.961 260.29C195.731 259.89 195.421 259.59 195.041 259.4C194.651 259.21 194.231 259.11 193.781 259.11C193.321 259.11 192.891 259.21 192.511 259.4Z" fill="#666666"/>
<path d="M207.33 258.8C207.87 259.09 208.29 259.52 208.6 260.08C208.91 260.64 209.06 261.29 209.06 262.04C209.06 262.79 208.91 263.45 208.6 264C208.29 264.55 207.87 264.98 207.33 265.28C206.79 265.58 206.18 265.73 205.5 265.73C204.82 265.73 204.2 265.58 203.66 265.28C203.12 264.98 202.69 264.55 202.38 264C202.07 263.44 201.91 262.79 201.91 262.05C201.91 261.3 202.07 260.64 202.38 260.09C202.69 259.53 203.12 259.11 203.66 258.81C204.2 258.52 204.82 258.37 205.5 258.37C206.18 258.37 206.79 258.51 207.33 258.8ZM204.18 259.48C203.78 259.69 203.45 260.01 203.21 260.45C202.96 260.88 202.84 261.42 202.84 262.05C202.84 262.68 202.96 263.21 203.21 263.64C203.46 264.07 203.78 264.39 204.18 264.6C204.58 264.81 205.02 264.92 205.49 264.92C205.95 264.92 206.39 264.81 206.78 264.6C207.18 264.39 207.5 264.07 207.75 263.64C208 263.21 208.12 262.68 208.12 262.05C208.12 261.42 208 260.89 207.75 260.45C207.5 260.02 207.18 259.69 206.78 259.48C206.38 259.27 205.95 259.16 205.49 259.16C205.02 259.16 204.58 259.27 204.18 259.48Z" fill="#666666"/>
<path d="M212.341 256.91C212.071 257.16 211.941 257.58 211.941 258.16V258.45H213.741V259.27H211.941V265.63H211.021V259.27H209.951V258.45H211.021V258.1C211.021 257.29 211.241 256.69 211.681 256.29C212.121 255.89 212.811 255.7 213.741 255.74V256.55C213.071 256.54 212.601 256.66 212.341 256.91Z" fill="#666666"/>
<path d="M216.742 256.91C216.472 257.16 216.342 257.58 216.342 258.16V258.45H218.142V259.27H216.342V265.63H215.422V259.27H214.352V258.45H215.422V258.1C215.422 257.29 215.642 256.69 216.082 256.29C216.522 255.89 217.212 255.7 218.142 255.74V256.55C217.472 256.54 217.012 256.66 216.742 256.91Z" fill="#666666"/>
<path d="M220.451 255.9V265.63H219.521V255.9H220.451Z" fill="#666666"/>
<path d="M222.43 255.86C222.56 255.75 222.72 255.69 222.92 255.69C223.12 255.69 223.28 255.75 223.41 255.86C223.53 255.97 223.59 256.13 223.59 256.32C223.59 256.5 223.53 256.65 223.41 256.77C223.29 256.88 223.12 256.94 222.92 256.94C222.72 256.94 222.55 256.88 222.43 256.77C222.3 256.66 222.24 256.51 222.24 256.32C222.24 256.13 222.3 255.98 222.43 255.86ZM223.38 258.45V265.63H222.45V258.45H223.38Z" fill="#666666"/>
<path d="M231.001 259.12C231.521 259.65 231.781 260.43 231.781 261.45V265.63H230.871V261.52C230.871 260.74 230.671 260.14 230.281 259.73C229.891 259.31 229.351 259.11 228.661 259.11C227.941 259.11 227.371 259.34 226.951 259.8C226.521 260.26 226.311 260.94 226.311 261.83V265.64H225.381V258.46H226.311V260.22C226.491 259.61 226.831 259.14 227.311 258.81C227.791 258.49 228.341 258.32 228.971 258.32C229.801 258.32 230.481 258.59 231.001 259.12Z" fill="#666666"/>
<path d="M238.491 264.47C238.931 264.15 239.191 263.71 239.281 263.16H240.251C240.121 263.92 239.751 264.54 239.161 265.01C238.561 265.48 237.811 265.72 236.901 265.72C236.221 265.72 235.611 265.57 235.081 265.28C234.551 264.99 234.141 264.56 233.841 264.01C233.541 263.46 233.391 262.8 233.391 262.04C233.391 261.28 233.541 260.63 233.841 260.08C234.141 259.53 234.551 259.1 235.081 258.8C235.611 258.5 236.221 258.36 236.901 258.36C237.601 258.36 238.211 258.51 238.721 258.8C239.231 259.09 239.621 259.49 239.891 259.98C240.161 260.47 240.291 261.01 240.291 261.58C240.291 261.83 240.271 262.05 240.241 262.25H234.301C234.311 262.85 234.431 263.36 234.681 263.77C234.921 264.18 235.231 264.48 235.621 264.67C236.011 264.86 236.421 264.96 236.871 264.96C237.511 264.96 238.051 264.8 238.491 264.47ZM235.621 259.4C235.231 259.59 234.921 259.89 234.681 260.29C234.441 260.69 234.311 261.19 234.291 261.78H239.361C239.401 261.19 239.301 260.7 239.071 260.29C238.841 259.89 238.531 259.59 238.151 259.4C237.761 259.21 237.341 259.11 236.891 259.11C236.431 259.11 236.011 259.21 235.621 259.4Z" fill="#666666"/>
<defs>
<linearGradient id="paint0_linear_3198_13871" x1="194.631" y1="219.951" x2="167.167" y2="91.539" gradientUnits="userSpaceOnUse">
<stop stop-color="#EEE9FF"/>
<stop offset="1" stop-color="white" stop-opacity="0"/>
</linearGradient>
</defs>
</svg>
